HIERARCHY
ROOT Hips
{
	OFFSET -3.958830 18.904000 13.208200
	CHANNELS 6 Xposition Yposition Zposition Zrotation Yrotation Xrotation 
	JOINT LHipJoint
	{
		OFFSET 0.000000 0.000000 0.000000
		CHANNELS 3 Zrotation Yrotation Xrotation
		JOINT LeftUpLeg
		{
			OFFSET 1.800000 -1.400000 0.085000
			CHANNELS 3 Zrotation Yrotation Xrotation
			JOINT LeftLeg
			{
				OFFSET 2.215000 -6.000000 0.000000
				CHANNELS 3 Zrotation Yrotation Xrotation
				JOINT LeftFoot
				{
					OFFSET 2.500000 -6.900000 0.000000
					CHANNELS 3 Zrotation Yrotation Xrotation
					JOINT LeftToeBase
					{
						OFFSET 0.200000 -0.500000 1.950000
						CHANNELS 3 Zrotation Yrotation Xrotation
						End Site
						{
							OFFSET 0.000000 0.000000 0.000000
						}
					}
				}
			}
		}
	}
	JOINT RHipJoint
	{
		OFFSET 0.000000 0.000000 0.000000
		CHANNELS 3 Zrotation Yrotation Xrotation
		JOINT RightUpLeg
		{
			OFFSET -1.800000 -1.400000 0.085000
			CHANNELS 3 Zrotation Yrotation Xrotation
			JOINT RightLeg
			{
				OFFSET -2.215000 -6.000000 0.000000
				CHANNELS 3 Zrotation Yrotation Xrotation
				JOINT RightFoot
				{
					OFFSET -2.500000 -6.900000 0.000000
					CHANNELS 3 Zrotation Yrotation Xrotation
					JOINT RightToeBase
					{
						OFFSET -0.200000 -0.500000 1.950000
						CHANNELS 3 Zrotation Yrotation Xrotation
						End Site
						{
							OFFSET 0.000000 0.000000 0.000000
						}
					}
				}
			}
		}
	}
	JOINT LowerBack
	{
		OFFSET 0.000000 0.000000 0.000000
		CHANNELS 3 Zrotation Yrotation Xrotation
		JOINT Spine
		{
			OFFSET -0.087000 1.940000 -0.288900
			CHANNELS 3 Zrotation Yrotation Xrotation
			JOINT Spine1
			{
				OFFSET 0.000000 1.950000 0.060000
				CHANNELS 3 Zrotation Yrotation Xrotation
				JOINT Neck
				{
					OFFSET 0.000000 0.000000 0.000000
					CHANNELS 3 Zrotation Yrotation Xrotation
					JOINT Neck1
					{
						OFFSET 0.000000 1.600000 0.340000
						CHANNELS 3 Zrotation Yrotation Xrotation
						JOINT Head
						{
							OFFSET 0.000000 1.667000 -0.240000
							CHANNELS 3 Zrotation Yrotation Xrotation
							End Site
							{
								OFFSET 0.000000 0.000000 0.000000
							}
						}
					}
				}
				JOINT LeftShoulder
				{
					OFFSET 0.000000 0.000000 0.000000
					CHANNELS 3 Zrotation Yrotation Xrotation
					JOINT LeftArm
					{
						OFFSET 2.700000 1.550000 -0.730000
						CHANNELS 3 Zrotation Yrotation Xrotation
						JOINT LeftForeArm
						{
							OFFSET 5.450000 0.000000 0.000000
							CHANNELS 3 Zrotation Yrotation Xrotation
							JOINT LeftHand
							{
								OFFSET 3.450000 0.000000 0.000000
								CHANNELS 3 Zrotation Yrotation Xrotation
								JOINT LeftHandIndex1
								{
									OFFSET 0.750000 0.000000 0.000000
									CHANNELS 3 Zrotation Yrotation Xrotation
									End Site
									{
										OFFSET 0.000000 0.000000 0.000000
									}
								}
							}
						}
					}
				}
				JOINT RightShoulder
				{
					OFFSET 0.000000 0.000000 0.000000
					CHANNELS 3 Zrotation Yrotation Xrotation
					JOINT RightArm
					{
						OFFSET -2.700000 1.550000 -0.730000
						CHANNELS 3 Zrotation Yrotation Xrotation
						JOINT RightForeArm
						{
							OFFSET -5.450000 0.000000 0.000000
							CHANNELS 3 Zrotation Yrotation Xrotation
							JOINT RightHand
							{
								OFFSET -3.450000 0.000000 0.000000
								CHANNELS 3 Zrotation Yrotation Xrotation
								JOINT RightHandIndex1
								{
									OFFSET -0.750000 0.000000 0.000000
									CHANNELS 3 Zrotation Yrotation Xrotation
									End Site
									{
										OFFSET 0.000000 0.000000 0.000000
									}
								}
							}
						}
					}
				}
			}
		}
	}
}
MOTION
Frames: 10
Frame Time: 0.016667
1.662840 17.835320 -1.419010 -1.600130 15.003745 0.598518 -14.975576 13.202641 2.984762 -4.926357 0.808302 2.149653 -4.317337 6.083321 16.404479 -0.068625 5.186468 2.990055 -0.132200 -0.328810 -0.235460 18.620770 -9.856844 3.763202 12.078023 4.496265 -40.991390 4.455442 -7.398229 29.776681 -0.398724 -3.438532 2.872119 -0.294170 0.712380 0.561530 -4.623940 -2.656008 -7.863705 26.609690 -17.262154 27.502291 -8.405368 -11.211977 9.014127 1.405012 -3.588622 -13.200168 -16.607623 5.384215 58.591684 -1.437460 -2.103010 0.729950 -10.793794 -16.508547 6.761237 -33.643413 -12.427150 -9.283478 -9.386897 -64.666312 -0.264039 -3.649498 3.001542 0.665970 0.199280 0.242530 0.274220 8.341465 13.324390 7.686709 57.769654 0.556092 -14.037963 -21.900983 17.946278 -4.260880 2.372145 -1.111790 -0.208420 0.364600 0.327140 0.218080 
1.704240 17.797810 -1.314470 -0.806992 14.117415 2.344161 -14.988196 13.179372 3.066595 -6.320557 1.228241 2.073739 -4.039616 5.916909 15.072956 -0.045703 5.070186 3.047927 -0.188950 -0.425080 -0.257490 18.623580 -9.758153 3.766530 12.243153 4.678441 -39.982455 5.329811 -6.546495 24.930690 -0.238858 -2.795179 3.117500 -0.351960 0.744610 0.586490 -4.591608 -2.770129 -7.895823 25.890223 -15.875410 24.229001 -8.152066 -10.712880 8.985448 1.564899 -2.637381 -13.395778 -14.376955 4.624327 58.889968 -2.626090 -1.289270 4.887920 -10.151257 -15.828604 7.046060 -35.155704 -12.579038 -8.237184 -11.559012 -63.975567 1.141691 -3.707857 3.064809 0.615630 0.254240 0.190070 0.266690 7.193516 12.243917 7.682064 58.264706 -0.135752 -13.914819 -20.222607 18.333551 -4.064505 2.392283 -1.144267 -0.207430 0.298840 0.340750 0.214270 
1.761030 17.763240 -1.154760 -0.341658 11.804082 4.226216 -14.995472 13.087724 3.161819 -7.166971 1.847332 2.869885 -5.112542 5.970674 11.897149 0.023310 4.973564 3.102878 -0.240700 -0.485630 -0.274900 18.650519 -9.608958 3.774804 13.023310 5.103678 -37.258175 5.920507 -5.102161 17.399889 -0.068113 -1.958249 3.466311 -0.402420 0.756040 0.589480 -4.567611 -2.815007 -7.949600 25.647135 -14.053157 20.031126 -8.211599 -9.851885 9.279558 2.056132 -1.656519 -13.795063 -12.293717 3.731635 60.240273 -4.719140 -0.378830 8.744870 -9.909497 -15.066912 7.430352 -36.880124 -12.049794 -7.308977 -12.639755 -62.668334 1.903803 -3.746127 3.073163 0.560600 0.297010 0.163200 0.264400 5.765018 11.259310 7.969302 59.033274 -1.319160 -14.715946 -19.692815 20.754142 -4.529859 2.389176 -1.162914 -0.195610 0.256340 0.334680 0.221910 
1.819120 17.713060 -0.998150 -0.451526 7.674698 5.512252 -15.026970 12.970825 3.274519 -8.261157 2.437270 3.961932 -6.190379 5.993443 8.946488 0.115890 4.972982 3.131887 -0.309930 -0.540450 -0.339040 18.669169 -9.379913 3.855660 14.909731 5.787643 -34.257249 5.666542 -3.959360 11.365787 0.019373 -1.511660 3.688366 -0.452800 0.811980 0.600660 -4.474195 -2.944848 -8.066021 25.321468 -11.970661 17.719619 -7.280207 -8.390172 9.354744 2.243898 -1.527744 -14.197591 -12.101525 3.573224 59.942382 -5.692940 -0.103260 10.569400 -9.273567 -13.928470 7.601155 -38.951858 -11.758733 -6.365654 -15.321451 -61.580357 3.410101 -3.807493 3.058166 0.512790 0.343290 0.146080 0.274210 4.674981 10.646637 8.444277 58.155970 -3.081403 -16.346680 -19.531210 26.205573 -5.510602 2.315731 -1.139342 -0.184570 0.267270 0.360260 0.257680 
1.865070 17.669850 -0.869110 -1.312077 3.000545 5.857001 -15.047804 12.831490 3.375459 -8.954181 2.863724 5.621885 -7.001103 5.931724 6.008546 0.209176 5.037601 3.129200 -0.343650 -0.588550 -0.372230 18.701325 -9.171419 3.940006 17.277651 6.341216 -31.440280 5.328439 -3.475221 8.340044 0.036612 -1.425029 3.745191 -0.493250 0.839450 0.607410 -4.431995 -3.031397 -8.145123 26.340145 -10.978714 17.098716 -7.087792 -7.410910 9.196111 2.281928 -2.594630 -14.711443 -14.800670 4.808601 59.029720 -5.667170 -0.304430 12.062320 -8.835992 -12.977239 7.855134 -39.878210 -10.489490 -6.063837 -18.115168 -60.423612 4.790671 -3.822108 3.090107 0.489900 0.351490 0.126700 0.277630 4.202215 10.875717 8.992066 57.143252 -4.637561 -18.696686 -20.681197 33.810417 -7.214552 2.218833 -1.149645 -0.173080 0.256150 0.375680 0.278100 
1.907730 17.631950 -0.781980 -2.083526 -0.135440 5.660372 -15.072096 12.741571 3.456423 -9.378972 3.183194 7.263655 -7.420900 5.893765 3.946587 0.217743 5.198604 3.095430 -0.404770 -0.680650 -0.418520 18.716168 -9.019703 3.972776 18.806824 6.600481 -29.656648 4.753181 -3.379696 7.728491 0.052713 -1.445537 3.748721 -0.520920 0.894740 0.580900 -4.396767 -3.144751 -8.163024 27.769493 -10.933725 17.783886 -6.877373 -7.064392 8.885726 1.868794 -4.073567 -15.084777 -18.424258 6.254763 56.971618 -4.575090 -1.196780 11.855150 -6.717102 -11.803450 8.142029 -41.573181 -10.291060 -5.548528 -21.812131 -59.029178 6.350324 -3.848875 3.065248 0.518750 0.353240 0.082110 0.256430 3.054910 10.859555 9.077629 57.318597 -4.746062 -20.889167 -23.678335 40.530137 -9.550863 2.110339 -1.102696 -0.230680 0.305390 0.437560 0.270250 
1.960570 17.603700 -0.704340 -3.489390 0.983318 5.291237 -15.089817 12.790110 3.357903 -7.516968 2.919906 8.229432 -7.726854 6.092653 3.931610 0.309003 5.356606 3.060803 -0.458410 -0.730210 -0.477190 18.715488 -8.921349 4.000565 19.676036 6.850332 -29.447493 4.117432 -3.478175 8.724411 0.071537 -1.501882 3.748343 -0.568540 0.930360 0.597040 -4.371424 -3.329771 -8.078430 30.856328 -12.915538 17.902252 -7.270339 -8.573814 8.649029 1.820899 -5.074610 -15.276224 -19.967605 6.019139 53.085343 -5.206780 -1.458080 12.051160 -3.529276 -10.796625 8.756217 -44.490277 -10.132801 -5.731229 -25.396698 -58.467372 7.686640 -3.864280 3.137914 0.465840 0.379800 0.051710 0.252540 0.017725 10.157861 8.824413 58.966458 -3.372520 -21.961267 -23.636169 44.743355 -10.593570 2.088026 -1.130073 -0.205310 0.283830 0.464500 0.302270 
1.996910 17.578410 -0.625880 -3.817357 3.267168 5.288626 -15.138220 12.983982 3.306799 -6.158943 2.684486 8.454257 -7.798363 6.306026 4.767442 0.371027 5.470497 3.044380 -0.476720 -0.749510 -0.502550 18.654116 -8.861307 3.942513 18.632463 6.782873 -30.966078 4.634461 -3.975819 11.483316 0.075441 -1.619217 3.730728 -0.598910 0.950120 0.618620 -4.227302 -3.745534 -7.997804 31.801051 -14.916817 18.192046 -6.358313 -10.464258 7.931517 1.754424 -5.993311 -15.228940 -21.138212 5.540676 49.653275 -6.680940 -1.315740 11.718150 -0.825469 -9.267334 9.078379 -48.468637 -9.943992 -6.044876 -27.645368 -57.291054 8.177997 -3.863612 3.195832 0.430080 0.403880 0.038240 0.265760 -2.482817 8.981919 8.306553 59.739828 -1.583477 -21.928554 -20.193049 47.215988 -9.933343 2.090205 -1.182335 -0.179540 0.266240 0.463770 0.324030 
2.021230 17.575940 -0.555730 -3.722748 5.308580 5.515340 -15.153445 13.129722 3.223843 -5.520358 2.509821 7.747506 -7.384663 6.457442 6.503105 0.325885 5.581903 3.042056 -0.611220 -0.898000 -0.652360 18.621529 -8.889709 3.880318 17.389827 6.599860 -32.951554 4.989278 -4.657052 14.854984 0.109988 -1.859172 3.661220 -0.653350 1.097150 0.615530 -4.176526 -3.960998 -7.878369 31.889323 -16.541842 18.558321 -5.225535 -12.072200 7.269033 1.035598 -6.765176 -15.330025 -21.912444 6.248805 46.655581 -4.855460 -1.764070 12.645840 0.901695 -8.984749 9.652631 -52.175534 -9.353456 -6.886398 -29.368834 -56.225249 8.185745 -3.943390 3.189114 0.414560 0.474160 -0.051810 0.259950 -2.688977 8.701359 7.800551 58.945821 -0.191566 -21.464392 -15.084878 48.534802 -8.301207 2.062629 -1.168271 -0.249260 0.319760 0.574800 0.350670 
2.029550 17.585620 -0.503490 -2.452098 6.760211 6.065265 -15.177376 13.324806 3.200159 -6.205432 2.315881 5.892955 -6.876043 6.606991 9.824333 0.269512 5.608106 3.002955 -0.670710 -0.979450 -0.701400 18.561296 -8.949525 3.813049 15.372849 6.202266 -35.062889 5.569963 -5.281838 17.501986 0.116200 -2.076033 3.558299 -0.692870 1.137730 0.640560 -4.078849 -4.247733 -7.832769 29.942289 -17.027045 19.545847 -3.458125 -12.719854 6.644858 0.567018 -7.069749 -15.494957 -22.284687 7.004158 45.715459 -3.492630 -1.941700 12.496140 1.182101 -9.202320 9.900699 -54.180423 -8.641775 -7.636619 -32.627795 -54.908161 9.053747 -3.997655 3.211495 0.417020 0.495290 -0.085950 0.213930 -1.914038 9.034367 7.636828 58.138677 0.255086 -21.401544 -9.782223 49.853879 -6.577550 2.056317 -1.163866 -0.257120 0.305520 0.652070 0.348620 
